<svg xmlns="http://www.w3.org/2000/svg" viewBox="0 0 64 64"><title>Convert Image</title><defs><linearGradient id="g" x1="0" y1="0" x2="1" y2="1"><stop stop-color="#F4C542"/><stop offset="1" stop-color="#FF9A32"/></linearGradient><linearGradient id="b" x1="0" y1="0" x2="1" y2="1"><stop stop-color="#65C8FF"/><stop offset="1" stop-color="#7B8CFF"/></linearGradient><linearGradient id="m" x1="0" y1="0" x2="1" y2="1"><stop stop-color="#24455C"/><stop offset="1" stop-color="#1B3242"/></linearGradient></defs><rect x="2" y="2" width="60" height="60" rx="17" fill="url(#m)"/><path d="M10 17C15 9 24 6 33 6c9 0 17 3 22 10" fill="none" stroke="#EEF3FB" stroke-opacity=".07" stroke-width="2"/><rect x="17" y="18" width="30" height="28" rx="4" fill="none" stroke="#EEF3FB" stroke-width="2.5"/><circle cx="25" cy="26" r="3" fill="url(#g)"/><path d="m20 41 8-9 6 6 5-5 6 8" fill="none" stroke="url(#b)" stroke-width="2.8" stroke-linejoin="round"/><path d="M16 27c-2-4 0-8 4-10M20 17l-1 5 5-2M48 37c2 4 0 8-4 10M44 47l1-5-5 2" fill="none" stroke="url(#g)" stroke-width="2.8" stroke-linecap="round" stroke-linejoin="round"/></svg>