<svg xmlns="http://www.w3.org/2000/svg" viewBox="0 0 64 64" role="img" aria-label="Extract Audio"><title>Extract Audio</title><defs><linearGradient id="g" x1="0" y1="0" x2="1" y2="1"><stop stop-color="#F4C542"/><stop offset="1" stop-color="#FF9A32"/></linearGradient><linearGradient id="b" x1="0" y1="0" x2="1" y2="1"><stop stop-color="#65C8FF"/><stop offset="1" stop-color="#7B8CFF"/></linearGradient><linearGradient id="v" x1="0" y1="0" x2="1" y2="1"><stop stop-color="#1C4B42"/><stop offset="1" stop-color="#143630"/></linearGradient></defs><rect x="2" y="2" width="60" height="60" rx="17" fill="url(#v)"/><path d="M10 17C15 9 24 6 33 6c9 0 17 3 22 10" fill="none" stroke="#EEF3FB" stroke-opacity=".07" stroke-width="2"/><rect x="11" y="13" width="17" height="13" rx="2" fill="none" stroke="url(#b)" stroke-width="2.2"/><path d="m16 16.5 6 3-6 3z" fill="#EEF3FB"/><path d="M14 33c2 4 2 8 0 12M20 30c3 5 3 10 0 15" fill="none" stroke="#65C8FF" stroke-width="2.2" stroke-linecap="round"/><ellipse cx="30" cy="47" rx="3.8" ry="3" fill="url(#g)"/><ellipse cx="47" cy="44" rx="3.8" ry="3" fill="url(#g)"/><path d="M33.5 46V26M50.5 43V23" stroke="url(#g)" stroke-width="2.6"/><path d="M33.5 26 50.5 23" stroke="url(#g)" stroke-width="4.6" stroke-linecap="round"/></svg>
