<svg xmlns="http://www.w3.org/2000/svg" viewBox="0 0 64 64" role="img" aria-label="Images to PDF"><title>Images to PDF</title><defs><linearGradient id="g" x1="0" y1="0" x2="1" y2="1"><stop stop-color="#F4C542"/><stop offset="1" stop-color="#FF9A32"/></linearGradient><linearGradient id="b" x1="0" y1="0" x2="1" y2="1"><stop stop-color="#65C8FF"/><stop offset="1" stop-color="#7B8CFF"/></linearGradient><linearGradient id="v" x1="0" y1="0" x2="1" y2="1"><stop stop-color="#52304D"/><stop offset="1" stop-color="#3A293F"/></linearGradient></defs><rect x="2" y="2" width="60" height="60" rx="17" fill="url(#v)"/><path d="M10 17C15 9 24 6 33 6c9 0 17 3 22 10" fill="none" stroke="#EEF3FB" stroke-opacity=".07" stroke-width="2"/><rect x="14" y="18" width="22" height="23" rx="3" fill="none" stroke="#65C8FF" stroke-width="2.5"/><circle cx="21" cy="25" r="2.5" fill="url(#g)"/><path d="m16 37 6-7 5 5 4-4 5 6" fill="none" stroke="#EEF3FB" stroke-width="2.2"/><path d="M38 27h8m-3-5 5 5-5 5" fill="none" stroke="url(#g)" stroke-width="3" stroke-linecap="round"/><path d="M47 18h5v28H38" fill="none" stroke="#EEF3FB" stroke-width="2.3"/><path d="M41 36h8M41 41h6" stroke="#AAB7CC" stroke-width="1.8"/></svg>